<svg xmlns="http://www.w3.org/2000/svg" viewBox="0 0 32 32">
  <!-- 배경: 크림색 라운드 사각형 -->
  <rect width="32" height="32" rx="7" fill="#f0e8d8"/>
  <!-- 원형 프레임 -->
  <circle cx="16" cy="15" r="10" fill="none" stroke="#8b7355" stroke-width="1.2"/>
  <!-- 펜던트 조명 -->
  <line x1="16" y1="5" x2="16" y2="8" stroke="#8b7355" stroke-width="1"/>
  <path d="M13.5 8 Q16 10.5 18.5 8 Z" fill="#8b7355"/>
  <!-- 포크 -->
  <line x1="11" y1="11" x2="11" y2="19" stroke="#8b7355" stroke-width="1"/>
  <line x1="10" y1="11" x2="10" y2="14" stroke="#8b7355" stroke-width="0.7"/>
  <line x1="12" y1="11" x2="12" y2="14" stroke="#8b7355" stroke-width="0.7"/>
  <!-- 나이프 -->
  <line x1="21" y1="11" x2="21" y2="19" stroke="#8b7355" stroke-width="1"/>
  <path d="M21 11 Q22.5 13 21 15 Z" fill="#8b7355"/>
  <!-- 접시 -->
  <ellipse cx="16" cy="17" rx="4" ry="1.5" fill="none" stroke="#8b7355" stroke-width="1"/>
  <!-- 와인잔 -->
  <path d="M15 13 Q15 15.5 16 16 Q17 15.5 17 13 Z" fill="none" stroke="#8b7355" stroke-width="0.8"/>
  <line x1="16" y1="16" x2="16" y2="17.5" stroke="#8b7355" stroke-width="0.8"/>
  <line x1="15" y1="17.5" x2="17" y2="17.5" stroke="#8b7355" stroke-width="0.8"/>
  <!-- 나뭇잎 장식 -->
  <path d="M22.5 10 Q25 12 23 15 Q22 12.5 22.5 10 Z" fill="none" stroke="#8b7355" stroke-width="0.8"/>
</svg>
